<?xml version="1.0" standalone="no"?><!DOCTYPE svg PUBLIC "-//W3C//DTD SVG 1.1//EN" "http://www.w3.org/Graphics/SVG/1.1/DTD/svg11.dtd"><svg t="1620265619206" class="icon" viewBox="0 0 1024 1024" version="1.1" xmlns="http://www.w3.org/2000/svg" p-id="12545" width="16" height="16" xmlns:xlink="http://www.w3.org/1999/xlink"><defs><style type="text/css"></style></defs><path d="M916.1 704.3C944.1 646 960 580.9 960 512c0-247-201-448-448-448-69.8 0-135.8 16.4-194.7 45.2l18.6 91.1C388 170.7 448 153.6 512 153.6c197.6 0 358.4 160.8 358.4 358.4 0 55.2-12.8 107.3-35.2 154l-71.9-34 44.8 219.5L1006.2 747l-90.1-42.7zM512 870.4c-197.6 0-358.4-160.8-358.4-358.4 0-50.4 10.9-98.1 29.8-141.6l77.3 36.6-44.8-219.5L17.8 292l84.3 39.9C77.7 387 64 447.9 64 512c0 247 201 448 448 448 53.9 0 105.4-9.8 153.3-27.3L647 843.2c-41.7 17.1-87.1 27.2-135 27.2z" fill="#e6e6e6" p-id="12546"></path><path d="M444.8 684.4l224-173.3-224-162.7z" fill="#e6e6e6" p-id="12547"></path></svg>