<?xml version="1.0" standalone="no"?><!DOCTYPE svg PUBLIC "-//W3C//DTD SVG 1.1//EN" "http://www.w3.org/Graphics/SVG/1.1/DTD/svg11.dtd"><svg t="1607599999433" class="icon" viewBox="0 0 1024 1024" version="1.1" xmlns="http://www.w3.org/2000/svg" p-id="5178" xmlns:xlink="http://www.w3.org/1999/xlink" width="200" height="200"><defs><style type="text/css"></style></defs><path d="M405.470176 817.682135a291.745904 291.745904 0 1 0 182.798668-497.100656 0.365983 0.365983 0 0 0-0.269672 0.019262c-4.199169 0.308196-8.417599 0.77049-12.616768 1.29057a291.842215 291.842215 0 0 0-253.202159 253.780027c-0.462294 3.659826-0.828276 7.358176-1.136472 11.037264a291.071726 291.071726 0 0 0 84.426403 230.992796z" fill="#bfbfbf" p-id="5179"></path><path d="M322.180245 575.671338a290.436072 290.436072 0 0 1 83.270668-170.586407 290.513121 290.513121 0 0 1 169.931491-83.19362 164.807735 164.807735 0 0 1-127.766445-48.059291 164.884784 164.884784 0 0 1-42.184308-71.751848c-0.269671-1.194259-0.616392-2.369256-0.963112-3.544253a166.31019 166.31019 0 1 0-204.372378 205.913358l1.252045 0.327458a165.36634 165.36634 0 0 1 120.832039 170.894603z" fill="#bfbfbf" p-id="5180"></path></svg>