<?xml version="1.0" standalone="no"?><!DOCTYPE svg PUBLIC "-//W3C//DTD SVG 1.1//EN" "http://www.w3.org/Graphics/SVG/1.1/DTD/svg11.dtd"><svg t="1626224185784" class="icon" viewBox="0 0 1024 1024" version="1.1" xmlns="http://www.w3.org/2000/svg" p-id="7992" data-spm-anchor-id="a313x.7781069.0.i7" width="16" height="16" xmlns:xlink="http://www.w3.org/1999/xlink"><defs><style type="text/css"></style></defs><path d="M662.016 253.650824a72.884706 72.884706 0 0 1 103.484235 0l206.938353 208.203294a73.908706 73.908706 0 0 1 0 104.116706L558.531765 982.347294a72.884706 72.884706 0 0 1-103.484236 0 73.908706 73.908706 0 0 1 0-104.086588l341.504-343.521882c11.444706-11.504941 11.444706-30.117647 0-41.652706l-62.102588-62.464a29.153882 29.153882 0 0 0-41.381647 0l-31.021176 31.232a72.884706 72.884706 0 0 1-103.514353 0 73.908706 73.908706 0 0 1 0-104.086589l103.484235-104.116705zM362.014118 768.150588a72.884706 72.884706 0 0 1-103.484236 0L51.561412 559.947294a73.908706 73.908706 0 0 1 0-104.086588L252.084706 256.090353a72.884706 72.884706 0 0 1 103.484235 0 73.908706 73.908706 0 0 1 0 104.086588l-128.12047 126.915765c-11.444706 11.504941-11.444706 30.117647 0 41.652706l62.102588 62.433882a29.153882 29.153882 0 0 0 41.381647 0l31.021176-31.232a72.884706 72.884706 0 0 1 103.514353 0 73.908706 73.908706 0 0 1 0 104.116706l-103.484235 104.086588z" fill="#428675" p-id="7993" data-spm-anchor-id="a313x.7781069.0.i4" class=""></path><path d="M398.848 106.255059a106.255059 106.164706 90 1 0 212.329412 0 106.255059 106.164706 90 1 0-212.329412 0Z" fill="#428675" p-id="7994" data-spm-anchor-id="a313x.7781069.0.i5" class=""></path></svg>