<?xml version="1.0" standalone="no"?><!DOCTYPE svg PUBLIC "-//W3C//DTD SVG 1.1//EN" "http://www.w3.org/Graphics/SVG/1.1/DTD/svg11.dtd"><svg t="1627114060638" class="icon" viewBox="0 0 1024 1024" version="1.1" xmlns="http://www.w3.org/2000/svg" p-id="9187" width="16" height="16" xmlns:xlink="http://www.w3.org/1999/xlink"><defs><style type="text/css">@font-face { font-family: feedback-iconfont; src: url("//at.alicdn.com/t/font_1031158_1uhr8ri0pk5.eot?#iefix") format("embedded-opentype"), url("//at.alicdn.com/t/font_1031158_1uhr8ri0pk5.woff2") format("woff2"), url("//at.alicdn.com/t/font_1031158_1uhr8ri0pk5.woff") format("woff"), url("//at.alicdn.com/t/font_1031158_1uhr8ri0pk5.ttf") format("truetype"), url("//at.alicdn.com/t/font_1031158_1uhr8ri0pk5.svg#iconfont") format("svg"); }
</style></defs><path d="M729.344 483.5328v224.768h-409.6v12.4928h409.6v190.1056H998.4V483.5328zM967.68 843.3664h-146.0736v-17.0496H967.68z m0-31.7952h-146.0736v-16.9984H967.68z m0-31.7952h-146.0736V762.88H967.68z m-25.6-38.2976a25.6 25.6 0 1 1 25.6-25.6 25.6 25.6 0 0 1-25.6 25.6z" fill="#707070" p-id="9188"></path><path d="M698.4192 599.7568V142.4384a14.5408 14.5408 0 0 0-14.5408-14.4384h-38.3488a14.5408 14.5408 0 0 1-14.5408-14.5408v-32.7168a14.5408 14.5408 0 0 0-14.5408-14.5408H467.6096a14.5408 14.5408 0 0 0-14.5408 14.5408v32.6144A14.5408 14.5408 0 0 1 438.528 128H105.1136a14.5408 14.5408 0 0 0-14.5408 14.5408v457.3184a14.5408 14.5408 0 0 0 14.5408 14.5408h578.56a14.5408 14.5408 0 0 0 14.7456-14.6432z m-308.224-262.4l-46.08-50.176V486.4h-41.472V287.1808l-53.0432 50.176V269.9264l70.2976-63.1296 70.2976 67.4304z m149.1968 143.36l-70.2976 63.2832-70.2976-67.4816V413.44l46.08 50.176V264.192H486.4v199.424l53.0944-50.176z" fill="#707070" p-id="9189"></path></svg>