<?xml version="1.0" standalone="no"?><!DOCTYPE svg PUBLIC "-//W3C//DTD SVG 1.1//EN" "http://www.w3.org/Graphics/SVG/1.1/DTD/svg11.dtd"><svg t="1623821436418" class="icon" viewBox="0 0 1024 1024" version="1.1" xmlns="http://www.w3.org/2000/svg" p-id="2836" width="16" height="16" xmlns:xlink="http://www.w3.org/1999/xlink"><defs><style type="text/css"></style></defs><path d="M521.942626 257.952323c10.330505-0.245657 20.609293-1.667879 30.616566-4.240808h4.706263c10.886465-3.581414 21.333333-8.326465 31.198383-14.170505h4.240808c9.464242-5.184646 18.450101-11.183838 26.867071-17.932929l3.284041-2.831515c8.481616-7.201616 16.355556-15.088485 23.557171-23.570101l2.831515-2.818586c7.188687-8.908283 13.640404-18.385455 19.303435-28.34101v-3.284041a203.093333 203.093333 0 0 0 14.131717-32.077575v-2.353132c3.801212-11.351919 6.477576-23.04 8.016162-34.896161 1.383434-12.231111 1.383434-24.565657 0-36.796768-102.774949 11.248485-179.820606 99.413333-177.234748 202.834747l8.481616 0.478384z m254.564849 332.07596a191.72202 191.72202 0 0 1-12.722424-75.494142c0.646465-17.157172 3.65899-34.133333 8.96-50.46303a188.743111 188.743111 0 0 1 23.104646-47.17899 214.631434 214.631434 0 0 1 62.215758-60.379798 206.938505 206.938505 0 0 0-134.813738-85.333333c-10.097778-1.978182-20.337778-3.245253-30.616565-3.775354h-57.095758l-13.666263 3.775354-10.369293 3.28404-13.200808 4.719192-9.438384 7.550707-15.553939 6.128485-12.722424 5.197576-8.96 3.28404-10.847677 3.284041h-6.128485c-4.861414 0.54303-9.761616 0.54303-14.62303 0-4.706263 0.478384-9.438384 0.478384-14.131717 0h-5.184647l-10.369293-2.831515-7.537777-2.831516-10.834748-2.831515-17.92-7.072323-7.072323-2.366061-12.670707-4.667474-8.481616-2.831515-11.791516-3.775354h-8.96l-12.321616-2.353131h-9.399596l-11.313131-3.284041c-28.961616 0.155152-57.612929 5.921616-84.376566 16.976162C189.98303 330.007273 129.590303 429.588687 136.352323 536.255354v47.178989c0 3.775354 0 16.976162 3.284041 25.470708 3.28404 8.494545 0 9.425455 2.831515 14.157575s2.818586 15.088485 4.706262 22.639192c1.887677 7.550707 2.831515 9.916768 4.240808 14.62303 1.409293 4.719192 3.775354 14.144646 6.128485 21.229899 2.353131 7.072323 3.775354 10.382222 5.663031 15.566869l7.059394 19.807677 6.555151 15.101414c2.831515 6.141414 5.184646 12.735354 8.016162 18.876768l7.072323 14.144646 9.528889 18.398384 8.016161 13.679192 9.89091 16.976162 8.494545 12.735353 10.330505 15.54101 8.96 11.791515 10.847677 13.692122 9.425454 10.847676 10.847677 11.817374 9.839192 9.438384 10.847677 9.903838 9.839192 7.550707 10.847677 8.016162 9.890909 5.650101 10.369293 5.66303 9.425454 3.284041 10.369293 3.28404 12.25697 3.775354h10.989899c12.812929-0.465455 25.496566-2.676364 37.701818-6.568081a290.262626 290.262626 0 0 1 110.778182-30.189899c7.848081-0.530101 15.72202-0.530101 23.570101 0h7.537777l12.722425 2.831515 8.016161 2.353131 9.890909 3.284041 8.481617 3.28404 12.256969 5.184647 10.847677 4.719192 7.072323 2.36606 9.425455 3.284041h40.067879c31.482828-2.715152 61.013333-16.407273 83.432727-38.684445a483.030626 483.030626 0 0 0 104.145454-145.19596 502.910707 502.910707 0 0 0 21.682425-45.278383 217.098343 217.098343 0 0 1-114.049293-118.458182z" fill="#707070" p-id="2837"></path></svg>