<?xml version="1.0" standalone="no"?><!DOCTYPE svg PUBLIC "-//W3C//DTD SVG 1.1//EN" "http://www.w3.org/Graphics/SVG/1.1/DTD/svg11.dtd"><svg t="1623823034021" class="icon" viewBox="0 0 1024 1024" version="1.1" xmlns="http://www.w3.org/2000/svg" p-id="5966" width="16" height="16" xmlns:xlink="http://www.w3.org/1999/xlink"><defs><style type="text/css"></style></defs><path d="M874.217071 895.935749c-18.780404 30.93243-37.560808 54.131753-60.207766 75.66631-25.408782 22.646958-32.589525 42.532092-91.140196 50.272871-41.427362 7.733108-77.331076-7.740779-91.140197-13.809121-41.427362-19.340441-62.977262-25.408782-87.826007-25.408782-24.304052 0-44.741551 6.076013-85.616549 24.856417-12.704391 6.620706-46.95101 21.542228-88.930737 13.809121-43.084456-7.733108-65.17905-24.304052-81.197629-38.113173-33.14189-29.275336-57.998307-56.893577-80.645265-88.930737l666.704346 1.657094z" fill="#1E71B8" p-id="5967"></path><path d="M114.170741 380.579366c19.332769-43.636821 44.741551-72.912157 70.150333-93.349656 64.626685-53.027023 170.128367-56.341212 218.736471-43.636821 39.770268 9.942567 67.940874 34.246619 112.682425 34.246619 46.95101 0 74.009215-23.751688 111.02533-34.246619 48.608105-12.152026 154.662152-8.285472 223.707755 44.741551 20.437499 15.466215 39.210231 36.456079 49.705163 48.05574-24.848745 18.228039-39.770268 31.484795-51.922294 44.189186H114.170741z" fill="#6FB353" p-id="5968"></path><path d="M848.263596 380.579366c-11.599661 12.704391-19.885134 24.856417-29.275336 41.979727-11.039625 19.885134-24.304052 46.95101-27.618241 87.826007H81.581216c0.552365-6.628378 1.10473-13.809121 2.20946-20.989863 6.628378-43.636821 17.12331-79.540535 30.380065-108.815871h734.092855z" fill="#FFF22D" p-id="5969"></path><path d="M791.370019 510.3851a425.842595 425.842595 0 0 0 0 37.560808c1.657094 30.380065 12.152026 64.07432 25.961147 91.140197l-721.940829-1.657095C85.44777 593.792189 79.924122 549.050638 81.581216 510.3851h709.788803z" fill="#E0922F" p-id="5970"></path><path d="M817.323494 639.086105a188.901099 188.901099 0 0 0 20.437499 33.141889c47.503375 60.760131 67.940874 60.760131 104.949317 79.540535-2.754152 6.620706-4.963612 12.704391-7.733108 18.22804L137.370064 768.339474C121.903849 734.64522 105.885269 687.141845 95.390337 637.42901l721.933157 1.657095z" fill="#CC2229" p-id="5971"></path><path d="M934.977202 769.996569c-23.191651 54.131753-41.979727 93.894349-60.760131 125.93918l-666.696674-1.657094c-22.094593-32.589525-41.979727-68.50091-64.626685-113.242461-1.657094-3.866554-3.866554-8.285472-5.523648-12.69672l797.607138 1.657095z" fill="#5A308D" p-id="5972"></path><path d="M703.53634 78.435805c-3.866554 27.618241-17.675674 62.96959-39.770268 85.616549-23.759359 25.408782-60.760131 53.027023-82.862396 66.836144-12.152026 7.733108-43.636821 8.837837-69.590296 11.599661-3.314189-23.199323-3.866554-43.084456 3.314189-64.626685 9.390202-25.408782 21.5499-61.864861 40.874997-87.273642 23.751688-31.484795 50.817564-53.027023 65.731414-60.760131C641.126786 19.885134 674.268676 4.971283 702.983975 0c1.112401 25.408782 4.978955 54.131753 0.552365 78.435805z" fill="#6FB353" p-id="5973"></path></svg>