<?xml version="1.0" standalone="no"?><!DOCTYPE svg PUBLIC "-//W3C//DTD SVG 1.1//EN" "http://www.w3.org/Graphics/SVG/1.1/DTD/svg11.dtd"><svg t="1622889488169" class="icon" viewBox="0 0 1024 1024" version="1.1" xmlns="http://www.w3.org/2000/svg" p-id="20059" width="16" height="16" xmlns:xlink="http://www.w3.org/1999/xlink"><defs><style type="text/css"></style></defs><path d="M512 512m-512 0a512 512 0 1 0 1024 0 512 512 0 1 0-1024 0Z" fill="#1afa29" p-id="20060" data-spm-anchor-id="a313x.7781069.0.i69" class="selected"></path><path d="M225.28 256m61.44 0l450.56 0q61.44 0 61.44 61.44l0 389.12q0 61.44-61.44 61.44l-450.56 0q-61.44 0-61.44-61.44l0-389.12q0-61.44 61.44-61.44Z" fill="#FFFFFF" p-id="20061"></path><path d="M512 604.16c0-11.3152 9.14432-20.48 20.4288-20.48h143.4624c11.28448 0 20.4288 9.09312 20.4288 20.48 0 11.3152-9.14432 20.48-20.4288 20.48h-143.4624A20.40832 20.40832 0 0 1 512 604.16z m-152.87296-35.26656l72.40704-72.3968-72.3968-72.41728a20.48 20.48 0 0 1 28.94848-28.95872l86.89664 86.8864a20.48 20.48 0 0 1 0 28.95872l-86.89664 86.89664a20.48 20.48 0 1 1-28.95872-28.96896z" fill="#1afa29" p-id="20062" data-spm-anchor-id="a313x.7781069.0.i70" class="selected"></path></svg>