<?xml version="1.0" standalone="no"?><!DOCTYPE svg PUBLIC "-//W3C//DTD SVG 1.1//EN" "http://www.w3.org/Graphics/SVG/1.1/DTD/svg11.dtd"><svg t="1619617870130" class="icon" viewBox="0 0 1024 1024" version="1.1" xmlns="http://www.w3.org/2000/svg" p-id="2022" width="32" height="32" xmlns:xlink="http://www.w3.org/1999/xlink"><defs><style type="text/css"></style></defs><path d="M697.191489 653.617021l79.886525-137.985815v-21.787234l-94.411347-65.361702v-36.312057-36.312057l79.886524-65.361702c7.262411-7.262411 7.262411-14.524823 0-21.787234L682.666667 130.723404s-14.524823-7.262411-21.787234 0l-101.673759 36.312057c-21.787234-14.524823-43.574468-29.049645-65.361702-36.312057L479.319149 29.049645c0-14.524823-7.262411-21.787234-14.524823-21.787234H305.021277c-7.262411 0-21.787234 7.262411-21.787234 14.524823l-14.524823 108.93617c-21.787234 7.262411-43.574468 21.787234-65.361702 36.312057l-94.411348-36.312057c-14.524823 0-21.787234 0-29.049645 7.262412L0 275.971631s0 14.524823 7.262411 21.787234l79.886525 65.361702v72.624114l-79.886525 65.361702c-7.262411 7.262411-7.262411 14.524823 0 21.787234l79.886525 137.985816s14.524823 7.262411 21.787234 0l101.673759-36.312057c21.787234 14.524823 43.574468 29.049645 65.361702 36.312057l14.524823 101.673758c0 7.262411 7.262411 14.524823 21.787234 14.524823h159.77305c7.262411 0 21.787234-7.262411 21.787234-14.524823L508.368794 660.879433c21.787234-14.524823 50.836879-21.787234 65.361702-36.312057l101.673759 36.312057c7.262411 7.262411 14.524823 0 21.787234-7.262412zM384.907801 530.156028c-79.886525 0-137.985816-65.361702-137.985815-137.985815s65.361702-137.985816 137.985815-137.985816c79.886525 0 137.985816 65.361702 137.985816 137.985816s-58.099291 137.985816-137.985816 137.985815zM1016.737589 871.489362l-50.83688-29.049646v-21.787234-21.787234l43.574468-36.312057v-14.524822l-43.574468-72.624114h-14.524822l-50.83688 21.787234c-7.262411-7.262411-21.787234-14.524823-36.312057-21.787234l-7.262411-50.836879c0-7.262411 0-7.262411-7.262411-7.262411h-79.886525s-7.262411 0-7.262412 7.262411l-7.262411 58.099291c-14.524823 0-21.787234 14.524823-36.312057 21.787234l-50.836879-21.787234H653.617021l-43.574468 72.624113v14.524823l43.574468 29.049645v43.574468l-43.574468 36.312057v14.524823l43.574468 72.624113h14.524823l50.836879-21.787234c7.262411 7.262411 21.787234 14.524823 36.312057 21.787234l7.262411 50.83688s0 7.262411 7.262412 7.262411h79.886525s7.262411 0 7.262411-7.262411l7.262411-50.83688c14.524823-7.262411 29.049645-14.524823 36.312057-21.787234l50.83688 21.787234h14.524822l43.574468-72.624113c7.262411-14.524823 7.262411-21.787234 7.262412-21.787234z m-203.347518 14.524822c-36.312057 0-72.624113-29.049645-72.624114-72.624113 0-36.312057 36.312057-72.624113 72.624114-72.624114s72.624113 29.049645 72.624113 72.624114-36.312057 72.624113-72.624113 72.624113z" fill="#cdcdcd" p-id="2023"></path></svg>