<?xml version="1.0" standalone="no"?><!DOCTYPE svg PUBLIC "-//W3C//DTD SVG 1.1//EN" "http://www.w3.org/Graphics/SVG/1.1/DTD/svg11.dtd"><svg t="1627001350330" class="icon" viewBox="0 0 1094 1024" version="1.1" xmlns="http://www.w3.org/2000/svg" p-id="3536" width="17.09375" height="16" xmlns:xlink="http://www.w3.org/1999/xlink"><defs><style type="text/css">@font-face { font-family: feedback-iconfont; src: url("//at.alicdn.com/t/font_1031158_1uhr8ri0pk5.eot?#iefix") format("embedded-opentype"), url("//at.alicdn.com/t/font_1031158_1uhr8ri0pk5.woff2") format("woff2"), url("//at.alicdn.com/t/font_1031158_1uhr8ri0pk5.woff") format("woff"), url("//at.alicdn.com/t/font_1031158_1uhr8ri0pk5.ttf") format("truetype"), url("//at.alicdn.com/t/font_1031158_1uhr8ri0pk5.svg#iconfont") format("svg"); }
</style></defs><path d="M604.327869 822.557377v134.295082H470.032787V822.557377H33.57377V50.360656h1007.213115v772.196721H604.327869z m335.737705-671.47541H134.295082v570.754099h805.770492V151.081967zM297.967213 956.315279h478.42623c15.981115 0 28.974164 15.14177 28.974164 33.84236C805.367607 1008.85823 792.374557 1024 776.393443 1024H297.967213c-15.981115 0-28.974164-15.14177-28.974164-33.842361 0-18.70059 12.993049-33.842361 28.974164-33.84236z" p-id="3537" fill="#bfbfbf"></path><path d="M637.968787 422.660197H637.901639V386.098361H436.459016v34.312393L369.311475 419.672131v100.721312L240.018885 396.439082a17.122623 17.122623 0 0 1 0-24.475279L369.311475 251.803279v100.721311h268.590164c0.167869-0.604328 0.067148 70.135607 0.067148 70.135607z" p-id="3538" fill="#bfbfbf"></path><path d="M503.606557 520.393443h235.016394v100.721311l128.218229-124.055082a17.256918 17.256918 0 0 0 0-24.508852L738.622951 352.52459v100.721312H503.606557v67.147541z" p-id="3539" fill="#bfbfbf"></path></svg>