<?xml version="1.0" standalone="no"?><!DOCTYPE svg PUBLIC "-//W3C//DTD SVG 1.1//EN" "http://www.w3.org/Graphics/SVG/1.1/DTD/svg11.dtd"><svg t="1627008701150" class="icon" viewBox="0 0 1024 1024" version="1.1" xmlns="http://www.w3.org/2000/svg" p-id="5229" xmlns:xlink="http://www.w3.org/1999/xlink" width="16" height="16"><defs><style type="text/css">@font-face { font-family: feedback-iconfont; src: url("//at.alicdn.com/t/font_1031158_1uhr8ri0pk5.eot?#iefix") format("embedded-opentype"), url("//at.alicdn.com/t/font_1031158_1uhr8ri0pk5.woff2") format("woff2"), url("//at.alicdn.com/t/font_1031158_1uhr8ri0pk5.woff") format("woff"), url("//at.alicdn.com/t/font_1031158_1uhr8ri0pk5.ttf") format("truetype"), url("//at.alicdn.com/t/font_1031158_1uhr8ri0pk5.svg#iconfont") format("svg"); }
</style></defs><path d="M511.2 843L150.5 677.5c1.2 0.8-31.9-14.2-55.5-27.5 0 20 5.1 56.7 23.8 66.5L472 874.4c31.2 14.6 44.7 14.6 78.5 0l353.1-157.9c17.4-8.1 23.8-46.1 23.8-66.5-22.7 11.3-54.9 27.4-55.5 27.5L511.2 843zM118.8 385.6l353.2 158c31.2 14.6 44.7 14.6 78.5 0l353.1-158c26-12.1 26.9-63.4 0-78L550.5 122c-27.8-16.4-47.3-15.6-78.5 0L118.8 307.6c-26.9 17.2-27.8 63.3 0 78zM512.2 154l-1-0.5c2.2 2.4 2.1 1.3 1 0.5zM118.8 551.1L472 709c31.2 14.6 44.7 14.6 78.5 0l353.1-157.9c17.4-8.1 23.8-46.1 23.8-66.6-22.7 11.4-54.9 27.4-55.5 27.6L511.2 677.5 150.5 512.1c1.2 0.7-31.9-14.3-55.5-27.6 0 20 5 56.6 23.8 66.6z" p-id="5230" fill="#bfbfbf"></path></svg>