<?xml version="1.0" standalone="no"?><!DOCTYPE svg PUBLIC "-//W3C//DTD SVG 1.1//EN" "http://www.w3.org/Graphics/SVG/1.1/DTD/svg11.dtd"><svg t="1607562561838" class="icon" viewBox="0 0 1820 1024" version="1.1" xmlns="http://www.w3.org/2000/svg" p-id="3135" xmlns:xlink="http://www.w3.org/1999/xlink" width="355.46875" height="200"><defs><style type="text/css"></style></defs><path d="M1103.151407 851.361185h-436.906666c-40.144593 0-72.817778-32.673185-72.817778-72.817778v-485.451851c0-40.144593 32.673185-72.817778 72.817778-72.817778h339.816296c13.425778 0 24.272593 10.875259 24.272593 24.272592s-10.856296 24.272593-24.272593 24.272593h-339.816296c-13.37837 0-24.272593 10.894222-24.272593 24.272593v485.451851c0 13.397333 10.903704 24.272593 24.272593 24.272593h436.906666c13.397333 0 24.272593-10.875259 24.272593-24.272593v-388.361481c0-13.397333 10.856296-24.272593 24.272593-24.272593 13.425778 0 24.272593 10.875259 24.272592 24.272593v388.361481c0 40.144593-32.673185 72.817778-72.817778 72.817778z m0 0" p-id="3136" fill="#2c2c2c"></path><path d="M960.549926 462.999704c-6.21037 0-12.420741-2.379852-17.161482-7.111111-9.490963-9.490963-9.490963-24.832 0-34.322963l241.218371-241.218371c9.490963-9.490963 24.832-9.490963 34.322963 0 9.490963 9.490963 9.490963 24.832 0 34.322963l-241.218371 241.218371c-4.731259 4.759704-10.951111 7.111111-17.161481 7.111111z m0 0" p-id="3137" fill="#2c2c2c"></path><path d="M860.425481 462.999704h-145.635555c-13.397333 0-24.272593-10.875259-24.272593-24.272593s10.875259-24.272593 24.272593-24.272592h145.635555c13.397333 0 24.272593 10.875259 24.272593 24.272592s-10.875259 24.272593-24.272593 24.272593z m0 0M1006.061037 608.635259h-291.271111c-13.397333 0-24.272593-10.846815-24.272593-24.272592 0-13.425778 10.875259-24.272593 24.272593-24.272593h291.271111c13.425778 0 24.272593 10.846815 24.272593 24.272593 0 13.425778-10.846815 24.272593-24.272593 24.272592z m0 0" p-id="3138" fill="#2c2c2c"></path></svg>