<?xml version="1.0" standalone="no"?><!DOCTYPE svg PUBLIC "-//W3C//DTD SVG 1.1//EN" "http://www.w3.org/Graphics/SVG/1.1/DTD/svg11.dtd"><svg t="1622450740682" class="icon" viewBox="0 0 1137 1024" version="1.1" xmlns="http://www.w3.org/2000/svg" p-id="4536" width="17.765625" height="16" xmlns:xlink="http://www.w3.org/1999/xlink"><defs><style type="text/css"></style></defs><path d="M1133.833481 684.562963v65.536a70.542222 70.542222 0 0 1-70.504296 70.428444L606.814815 820.489481V910.222222h208.592592a56.888889 56.888889 0 0 1 0 113.777778h-493.037037a56.888889 56.888889 0 0 1 0-113.777778H493.037037v-89.732741l-422.570667 0.037926a70.542222 70.542222 0 0 1-70.428444-70.428444L0 684.562963h1133.833481zM1063.405037 0a70.542222 70.542222 0 0 1 70.428444 70.428444v559.028149H0l0.037926-559.028149C0.037926 31.55437 31.592296 0 70.46637 0h992.900741z" p-id="4537" fill="#707070"></path></svg>