<?xml version="1.0" standalone="no"?><!DOCTYPE svg PUBLIC "-//W3C//DTD SVG 1.1//EN" "http://www.w3.org/Graphics/SVG/1.1/DTD/svg11.dtd"><svg t="1620265077697" class="icon" viewBox="0 0 1024 1024" version="1.1" xmlns="http://www.w3.org/2000/svg" p-id="4447" width="16" height="16" xmlns:xlink="http://www.w3.org/1999/xlink"><defs><style type="text/css"></style></defs><path d="M864 64H160a128.14 128.14 0 0 0-128 128v640a128.14 128.14 0 0 0 128 128h704a128.14 128.14 0 0 0 128-128V192a128.14 128.14 0 0 0-128-128zM192 512a32 32 0 0 1-20-56.98L300.78 352 172 248.98a32 32 0 1 1 40-50l160 128a32 32 0 0 1 0 50l-160 128A32 32 0 0 1 192 512z m320 0h-128a32 32 0 0 1 0-64h128a32 32 0 0 1 0 64z" p-id="4448" fill="#707070"></path></svg>